<svg width="23" height="23" viewBox="0 0 23 23" fill="none" xmlns="http://www.w3.org/2000/svg">
<path id="Vector" d="M6.9 0H16.1C17.93 0 19.685 0.726962 20.979 2.02096C22.273 3.31496 23 5.07001 23 6.9V16.1C23 17.93 22.273 19.685 20.979 20.979C19.685 22.273 17.93 23 16.1 23H6.9C5.07001 23 3.31496 22.273 2.02096 20.979C0.726962 19.685 0 17.93 0 16.1L0 6.9C0 5.07001 0.726962 3.31496 2.02096 2.02096C3.31496 0.726962 5.07001 0 6.9 0ZM13.8 10.35C13.495 10.35 13.2025 10.4712 12.9868 10.6868C12.7712 10.9025 12.65 11.195 12.65 11.5C12.65 11.805 12.7712 12.0975 12.9868 12.3132C13.2025 12.5288 13.495 12.65 13.8 12.65H17.25C17.555 12.65 17.8475 12.5288 18.0632 12.3132C18.2788 12.0975 18.4 11.805 18.4 11.5C18.4 11.195 18.2788 10.9025 18.0632 10.6868C17.8475 10.4712 17.555 10.35 17.25 10.35H13.8ZM11.5 14.95C11.195 14.95 10.9025 15.0712 10.6868 15.2868C10.4712 15.5025 10.35 15.795 10.35 16.1C10.35 16.405 10.4712 16.6975 10.6868 16.9132C10.9025 17.1288 11.195 17.25 11.5 17.25H17.25C17.555 17.25 17.8475 17.1288 18.0632 16.9132C18.2788 16.6975 18.4 16.405 18.4 16.1C18.4 15.795 18.2788 15.5025 18.0632 15.2868C17.8475 15.0712 17.555 14.95 17.25 14.95H11.5ZM11.5 5.75C11.195 5.75 10.9025 5.87116 10.6868 6.08683C10.4712 6.30249 10.35 6.595 10.35 6.9C10.35 7.205 10.4712 7.49751 10.6868 7.71317C10.9025 7.92884 11.195 8.05 11.5 8.05H17.25C17.555 8.05 17.8475 7.92884 18.0632 7.71317C18.2788 7.49751 18.4 7.205 18.4 6.9C18.4 6.595 18.2788 6.30249 18.0632 6.08683C17.8475 5.87116 17.555 5.75 17.25 5.75H11.5ZM6.7022 11.7794L5.88915 10.9664C5.78307 10.8566 5.65617 10.769 5.51586 10.7087C5.37556 10.6484 5.22466 10.6167 5.07196 10.6154C4.91927 10.614 4.76783 10.6431 4.6265 10.701C4.48517 10.7588 4.35677 10.8442 4.2488 10.9521C4.14082 11.0601 4.05543 11.1885 3.99761 11.3299C3.93978 11.4712 3.91069 11.6226 3.91201 11.7753C3.91334 11.928 3.94506 12.0789 4.00533 12.2192C4.0656 12.3595 4.15321 12.4864 4.26305 12.5925L5.88915 14.2186C5.99595 14.3255 6.12279 14.4103 6.26239 14.4682C6.402 14.5261 6.55165 14.5559 6.70277 14.5559C6.8539 14.5559 7.00355 14.5261 7.14316 14.4682C7.28276 14.4103 7.4096 14.3255 7.5164 14.2186L10.7686 10.9664C10.9845 10.7508 11.106 10.4582 11.1062 10.153C11.1064 9.84784 10.9854 9.55509 10.7697 9.33915C10.5541 9.12321 10.2615 9.00178 9.95636 9.00156C9.65119 9.00134 9.35844 9.12237 9.1425 9.338L6.7022 11.7783V11.7794Z" fill="#AAA4A4" fill-opacity="0.9"/>
</svg>
